<svg xmlns="http://www.w3.org/2000/svg" width="400" height="6" viewBox="0 0 400 6"><rect x="0" y="2.5" width="400" height="1" fill="#E8E2D6" opacity="0.30"/><rect x="1.0" y="3.4" width="2.3" height="1.8" fill="#E8E2D6" opacity="0.29"/><rect x="3.1" y="1.4" width="4.7" height="0.6" fill="#E8E2D6" opacity="0.99"/><rect x="6.9" y="2.4" width="5.1" height="1.5" fill="#E8E2D6" opacity="0.70"/><rect x="10.8" y="2.2" width="4.4" height="1.4" fill="#E8E2D6" opacity="0.89"/><rect x="13.5" y="3.4" width="2.8" height="0.7" fill="#E8E2D6" opacity="0.88"/><rect x="16.2" y="0.5" width="2.8" height="2.7" fill="#E8E2D6" opacity="0.59"/><rect x="19.4" y="3.0" width="3.1" height="0.8" fill="#E8E2D6" opacity="0.83"/><rect x="24.0" y="1.0" width="1.7" height="2.5" fill="#E8E2D6" opacity="0.69"/><rect x="26.7" y="2.8" width="2.7" height="1.6" fill="#E8E2D6" opacity="0.48"/><rect x="31.4" y="1.7" width="2.0" height="1.9" fill="#E8E2D6" opacity="1.00"/><rect x="33.1" y="3.7" width="3.2" height="1.1" fill="#E8E2D6" opacity="0.69"/><rect x="36.5" y="1.3" width="3.3" height="1.5" fill="#E8E2D6" opacity="0.25"/><rect x="41.3" y="2.7" width="4.0" height="0.8" fill="#E8E2D6" opacity="0.81"/><rect x="43.8" y="2.7" width="4.8" height="1.4" fill="#E8E2D6" opacity="0.87"/><rect x="47.4" y="3.3" width="3.3" height="2.2" fill="#E8E2D6" opacity="0.49"/><rect x="50.1" y="3.8" width="4.8" height="1.1" fill="#E8E2D6" opacity="0.79"/><rect x="53.2" y="3.4" width="2.2" height="1.1" fill="#E8E2D6" opacity="0.82"/><rect x="57.6" y="1.7" width="2.2" height="2.2" fill="#E8E2D6" opacity="0.50"/><rect x="60.3" y="0.9" width="2.7" height="2.4" fill="#E8E2D6" opacity="0.76"/><rect x="64.3" y="2.5" width="4.1" height="1.1" fill="#E8E2D6" opacity="0.50"/><rect x="67.5" y="3.0" width="1.8" height="1.5" fill="#E8E2D6" opacity="0.90"/><rect x="70.5" y="2.3" width="4.3" height="2.0" fill="#E8E2D6" opacity="0.31"/><rect x="75.4" y="3.2" width="4.2" height="1.7" fill="#E8E2D6" opacity="0.29"/><rect x="77.8" y="2.9" width="4.2" height="2.7" fill="#E8E2D6" opacity="0.40"/><rect x="82.2" y="3.3" width="2.5" height="2.3" fill="#E8E2D6" opacity="0.96"/><rect x="85.7" y="3.9" width="1.5" height="1.0" fill="#E8E2D6" opacity="0.43"/><rect x="88.9" y="2.2" width="4.9" height="1.9" fill="#E8E2D6" opacity="0.53"/><rect x="90.4" y="1.6" width="2.1" height="0.5" fill="#E8E2D6" opacity="0.82"/><rect x="94.6" y="3.7" width="1.7" height="1.6" fill="#E8E2D6" opacity="0.39"/><rect x="98.3" y="2.4" width="3.5" height="1.4" fill="#E8E2D6" opacity="0.29"/><rect x="101.1" y="1.3" width="4.0" height="1.5" fill="#E8E2D6" opacity="0.81"/><rect x="104.9" y="3.9" width="4.2" height="0.8" fill="#E8E2D6" opacity="0.31"/><rect x="107.6" y="1.4" width="3.6" height="2.4" fill="#E8E2D6" opacity="0.73"/><rect x="111.3" y="2.9" width="3.2" height="1.3" fill="#E8E2D6" opacity="0.48"/><rect x="115.9" y="2.4" width="1.5" height="1.7" fill="#E8E2D6" opacity="0.82"/><rect x="118.1" y="3.9" width="3.4" height="1.0" fill="#E8E2D6" opacity="0.84"/><rect x="121.6" y="0.9" width="1.5" height="1.6" fill="#E8E2D6" opacity="0.64"/><rect x="125.2" y="0.3" width="4.9" height="2.5" fill="#E8E2D6" opacity="0.99"/><rect x="128.6" y="1.0" width="2.3" height="2.6" fill="#E8E2D6" opacity="0.35"/><rect x="131.3" y="1.0" width="5.0" height="1.2" fill="#E8E2D6" opacity="0.66"/><rect x="136.0" y="1.5" width="2.1" height="2.5" fill="#E8E2D6" opacity="0.29"/><rect x="138.9" y="2.8" width="4.7" height="0.5" fill="#E8E2D6" opacity="0.81"/><rect x="142.1" y="3.2" width="2.5" height="1.8" fill="#E8E2D6" opacity="0.98"/><rect x="144.8" y="1.8" width="3.8" height="0.5" fill="#E8E2D6" opacity="0.95"/><rect x="149.9" y="2.7" width="3.6" height="2.0" fill="#E8E2D6" opacity="0.37"/><rect x="151.9" y="3.9" width="3.9" height="0.6" fill="#E8E2D6" opacity="0.67"/><rect x="156.8" y="2.0" width="2.8" height="2.3" fill="#E8E2D6" opacity="0.25"/><rect x="160.1" y="2.6" width="3.0" height="2.5" fill="#E8E2D6" opacity="0.46"/><rect x="161.5" y="0.9" width="5.1" height="2.7" fill="#E8E2D6" opacity="0.65"/><rect x="165.9" y="2.7" width="4.7" height="1.9" fill="#E8E2D6" opacity="0.89"/><rect x="168.9" y="2.1" width="3.2" height="1.1" fill="#E8E2D6" opacity="0.54"/><rect x="173.7" y="1.2" width="4.1" height="1.4" fill="#E8E2D6" opacity="0.79"/><rect x="176.7" y="0.9" width="3.0" height="2.3" fill="#E8E2D6" opacity="0.91"/><rect x="179.6" y="1.8" width="4.3" height="1.4" fill="#E8E2D6" opacity="0.32"/><rect x="182.9" y="3.1" width="2.6" height="1.0" fill="#E8E2D6" opacity="0.30"/><rect x="187.6" y="0.6" width="4.6" height="2.1" fill="#E8E2D6" opacity="0.71"/><rect x="189.1" y="1.5" width="4.7" height="2.2" fill="#E8E2D6" opacity="0.51"/><rect x="194.0" y="0.9" width="2.0" height="1.3" fill="#E8E2D6" opacity="0.56"/><rect x="196.6" y="1.3" width="2.9" height="2.3" fill="#E8E2D6" opacity="0.78"/><rect x="200.1" y="2.5" width="1.7" height="1.5" fill="#E8E2D6" opacity="0.39"/><rect x="203.2" y="2.9" width="2.3" height="2.5" fill="#E8E2D6" opacity="0.47"/><rect x="206.0" y="3.0" width="3.1" height="1.0" fill="#E8E2D6" opacity="0.89"/><rect x="210.8" y="0.6" width="4.6" height="2.6" fill="#E8E2D6" opacity="0.76"/><rect x="213.2" y="3.2" width="4.1" height="0.9" fill="#E8E2D6" opacity="0.95"/><rect x="216.9" y="2.2" width="2.1" height="1.0" fill="#E8E2D6" opacity="0.28"/><rect x="219.8" y="0.3" width="2.6" height="2.6" fill="#E8E2D6" opacity="0.47"/><rect x="223.7" y="2.6" width="4.3" height="1.4" fill="#E8E2D6" opacity="0.84"/><rect x="227.4" y="2.0" width="2.1" height="2.1" fill="#E8E2D6" opacity="0.27"/><rect x="231.5" y="0.8" width="1.9" height="2.1" fill="#E8E2D6" opacity="0.56"/><rect x="234.7" y="0.4" width="2.4" height="2.3" fill="#E8E2D6" opacity="0.45"/><rect x="238.4" y="1.9" width="2.5" height="1.1" fill="#E8E2D6" opacity="0.53"/><rect x="241.0" y="2.0" width="1.6" height="1.9" fill="#E8E2D6" opacity="0.98"/><rect x="243.3" y="0.8" width="2.9" height="1.5" fill="#E8E2D6" opacity="0.90"/><rect x="247.4" y="1.4" width="4.7" height="1.2" fill="#E8E2D6" opacity="0.97"/><rect x="250.3" y="2.9" width="4.7" height="1.6" fill="#E8E2D6" opacity="0.51"/><rect x="254.4" y="3.7" width="3.2" height="1.6" fill="#E8E2D6" opacity="0.42"/><rect x="258.1" y="0.8" width="2.3" height="2.5" fill="#E8E2D6" opacity="0.75"/><rect x="260.1" y="3.2" width="3.2" height="1.6" fill="#E8E2D6" opacity="0.51"/><rect x="263.3" y="2.1" width="2.2" height="2.1" fill="#E8E2D6" opacity="0.34"/><rect x="268.8" y="3.6" width="3.8" height="0.9" fill="#E8E2D6" opacity="0.55"/><rect x="271.0" y="2.2" width="2.4" height="1.8" fill="#E8E2D6" opacity="0.74"/><rect x="273.9" y="3.0" width="1.9" height="1.3" fill="#E8E2D6" opacity="0.37"/><rect x="277.8" y="2.6" width="5.0" height="0.7" fill="#E8E2D6" opacity="0.57"/><rect x="280.8" y="1.8" width="4.1" height="1.6" fill="#E8E2D6" opacity="0.49"/><rect x="285.2" y="3.5" width="4.0" height="0.7" fill="#E8E2D6" opacity="0.32"/><rect x="288.0" y="1.4" width="2.0" height="0.6" fill="#E8E2D6" opacity="0.34"/><rect x="292.5" y="1.2" width="1.8" height="2.1" fill="#E8E2D6" opacity="0.69"/><rect x="294.2" y="2.9" width="5.0" height="0.9" fill="#E8E2D6" opacity="0.34"/><rect x="299.4" y="0.6" width="1.8" height="1.9" fill="#E8E2D6" opacity="1.00"/><rect x="302.6" y="1.3" width="2.7" height="2.3" fill="#E8E2D6" opacity="0.75"/><rect x="305.5" y="3.3" width="3.7" height="2.3" fill="#E8E2D6" opacity="0.78"/><rect x="308.3" y="1.2" width="4.2" height="0.8" fill="#E8E2D6" opacity="0.35"/><rect x="312.8" y="1.9" width="4.9" height="2.1" fill="#E8E2D6" opacity="0.92"/><rect x="315.0" y="2.4" width="3.6" height="0.8" fill="#E8E2D6" opacity="0.34"/><rect x="319.3" y="3.0" width="4.5" height="2.6" fill="#E8E2D6" opacity="0.97"/><rect x="321.8" y="3.0" width="3.4" height="1.6" fill="#E8E2D6" opacity="0.33"/><rect x="325.0" y="0.8" width="3.7" height="2.4" fill="#E8E2D6" opacity="0.78"/><rect x="328.4" y="3.1" width="4.5" height="0.7" fill="#E8E2D6" opacity="1.00"/><rect x="332.6" y="2.0" width="4.1" height="1.4" fill="#E8E2D6" opacity="0.71"/><rect x="335.5" y="1.3" width="1.9" height="1.1" fill="#E8E2D6" opacity="0.40"/><rect x="338.3" y="1.1" width="2.5" height="2.1" fill="#E8E2D6" opacity="0.55"/><rect x="341.2" y="0.9" width="3.9" height="1.7" fill="#E8E2D6" opacity="0.93"/><rect x="345.6" y="2.5" width="4.4" height="1.2" fill="#E8E2D6" opacity="0.86"/><rect x="348.8" y="0.6" width="5.1" height="2.3" fill="#E8E2D6" opacity="0.81"/><rect x="353.1" y="2.5" width="4.0" height="1.1" fill="#E8E2D6" opacity="0.69"/><rect x="356.9" y="3.0" width="1.7" height="0.7" fill="#E8E2D6" opacity="0.46"/><rect x="360.2" y="0.7" width="3.1" height="1.7" fill="#E8E2D6" opacity="0.41"/><rect x="362.9" y="3.0" width="1.6" height="2.6" fill="#E8E2D6" opacity="0.73"/><rect x="365.2" y="3.8" width="4.9" height="0.6" fill="#E8E2D6" opacity="0.36"/><rect x="369.8" y="2.3" width="3.0" height="2.1" fill="#E8E2D6" opacity="0.81"/><rect x="372.9" y="2.8" width="1.5" height="1.3" fill="#E8E2D6" opacity="0.76"/><rect x="376.9" y="1.5" width="3.4" height="0.7" fill="#E8E2D6" opacity="0.89"/><rect x="379.1" y="1.3" width="5.1" height="1.7" fill="#E8E2D6" opacity="0.65"/><rect x="384.0" y="2.2" width="1.6" height="1.9" fill="#E8E2D6" opacity="0.36"/><rect x="386.4" y="2.2" width="4.8" height="0.8" fill="#E8E2D6" opacity="0.26"/><rect x="389.1" y="0.7" width="4.5" height="2.4" fill="#E8E2D6" opacity="0.72"/><rect x="393.4" y="3.0" width="5.2" height="2.5" fill="#E8E2D6" opacity="0.60"/><rect x="397.5" y="1.8" width="3.2" height="1.7" fill="#E8E2D6" opacity="0.43"/></svg>