<svg xmlns="http://www.w3.org/2000/svg" width="1440" height="900" viewBox="0 0 1440 900" preserveAspectRatio="none"><g><rect x="32.6" y="321.1" width="108.7" height="5.6" fill="#FF00A8" opacity="0.77"/><rect x="34.2" y="287.8" width="43.7" height="8.1" fill="#00FF6A" opacity="0.98"/><rect x="60.3" y="193.0" width="26.5" height="4.0" fill="#FF2D00" opacity="0.69"/><rect x="36.1" y="388.8" width="78.1" height="3.9" fill="#FFE600" opacity="0.72"/><rect x="8.0" y="441.4" width="105.7" height="9.4" fill="#00B7FF" opacity="0.69"/><rect x="14.1" y="205.7" width="81.4" height="10.7" fill="#00E0FF" opacity="0.81"/><rect x="26.6" y="409.1" width="23.6" height="4.1" fill="#1400FF" opacity="0.79"/><rect x="36.9" y="320.9" width="43.4" height="9.4" fill="#8A00FF" opacity="0.66"/><rect x="18.1" y="167.2" width="33.9" height="3.0" fill="#FF2D00" opacity="0.76"/><rect x="4.6" y="175.8" width="93.8" height="4.7" fill="#FFE600" opacity="0.90"/><rect x="37.6" y="213.4" width="66.9" height="6.9" fill="#FFE600" opacity="0.71"/><rect x="11.2" y="174.5" width="64.1" height="7.6" fill="#B6FF00" opacity="0.92"/><rect x="35.2" y="177.5" width="87.9" height="10.7" fill="#00B7FF" opacity="0.83"/><rect x="1.6" y="427.9" width="55.0" height="6.9" fill="#1400FF" opacity="0.84"/><rect x="31.8" y="254.2" width="109.9" height="10.9" fill="#FF00A8" opacity="0.74"/><rect x="-8.0" y="259.3" width="81.6" height="5.3" fill="#FF00A8" opacity="0.74"/><rect x="4.8" y="299.6" width="105.1" height="8.0" fill="#00E0FF" opacity="0.92"/><rect x="57.4" y="196.6" width="60.5" height="4.5" fill="#00E0FF" opacity="0.76"/><rect x="28.8" y="491.6" width="83.4" height="5.3" fill="#1400FF" opacity="0.89"/><rect x="48.8" y="455.4" width="83.1" height="3.0" fill="#FF00A8" opacity="0.70"/><rect x="38.1" y="440.5" width="55.5" height="4.2" fill="#00E0FF" opacity="0.76"/><rect x="37.6" y="299.7" width="80.8" height="5.3" fill="#00B7FF" opacity="0.80"/><rect x="39.4" y="474.1" width="99.5" height="7.9" fill="#1400FF" opacity="0.78"/><rect x="72.9" y="272.9" width="25.2" height="7.8" fill="#B6FF00" opacity="0.92"/><rect x="-1.0" y="386.1" width="105.0" height="6.8" fill="#FFE600" opacity="0.81"/><rect x="23.0" y="502.5" width="104.4" height="8.4" fill="#FF2D00" opacity="0.76"/><rect x="54.3" y="258.3" width="38.3" height="10.7" fill="#1400FF" opacity="0.83"/><rect x="-2.6" y="443.8" width="52.2" height="8.0" fill="#FF2D00" opacity="0.78"/><rect x="47.7" y="244.4" width="61.3" height="3.7" fill="#00E0FF" opacity="0.92"/><rect x="17.7" y="188.9" width="94.4" height="4.5" fill="#00E0FF" opacity="0.67"/><rect x="51.4" y="197.6" width="52.8" height="2.6" fill="#FF00A8" opacity="0.83"/><rect x="8.2" y="363.9" width="48.1" height="3.7" fill="#00B7FF" opacity="0.79"/><rect x="8.2" y="467.3" width="25.1" height="4.5" fill="#FF2D00" opacity="0.82"/><rect x="4.3" y="207.3" width="48.1" height="7.2" fill="#1400FF" opacity="0.97"/></g><g><rect x="42.5" y="718.4" width="65.0" height="9.0" fill="#FF00A8" opacity="0.66"/><rect x="51.5" y="700.6" width="54.1" height="8.4" fill="#FF2D00" opacity="0.67"/><rect x="29.2" y="746.1" width="37.1" height="6.7" fill="#00B7FF" opacity="0.91"/><rect x="17.2" y="683.1" width="56.9" height="2.8" fill="#1400FF" opacity="0.64"/><rect x="28.8" y="709.7" width="23.5" height="5.2" fill="#00B7FF" opacity="0.94"/><rect x="73.1" y="707.0" width="44.3" height="3.9" fill="#FF2D00" opacity="0.70"/><rect x="43.0" y="687.6" width="76.0" height="4.8" fill="#B6FF00" opacity="0.68"/><rect x="87.1" y="744.9" width="17.8" height="8.7" fill="#1400FF" opacity="0.72"/><rect x="-3.4" y="788.5" width="33.5" height="8.6" fill="#00E0FF" opacity="0.62"/><rect x="38.7" y="744.8" width="39.6" height="10.8" fill="#00FF6A" opacity="0.78"/><rect x="68.0" y="687.1" width="16.7" height="8.1" fill="#8A00FF" opacity="0.94"/><rect x="72.7" y="749.4" width="43.2" height="7.5" fill="#FF2D00" opacity="0.76"/><rect x="46.6" y="777.1" width="74.6" height="9.3" fill="#B6FF00" opacity="0.89"/><rect x="7.8" y="741.3" width="86.3" height="10.9" fill="#B6FF00" opacity="0.85"/><rect x="60.2" y="744.7" width="64.2" height="8.2" fill="#00E0FF" opacity="0.92"/><rect x="6.4" y="716.6" width="29.1" height="5.5" fill="#FF00A8" opacity="0.68"/></g><g><rect x="497.3" y="689.0" width="61.8" height="4.3" fill="#8A00FF" opacity="0.68"/><rect x="487.3" y="564.3" width="36.0" height="9.9" fill="#8A00FF" opacity="0.65"/><rect x="485.7" y="130.3" width="23.2" height="6.6" fill="#8A00FF" opacity="0.72"/><rect x="493.5" y="739.1" width="53.3" height="2.9" fill="#FF00A8" opacity="0.84"/><rect x="507.9" y="610.2" width="23.2" height="5.8" fill="#00FF6A" opacity="0.89"/><rect x="532.6" y="512.4" width="15.0" height="3.5" fill="#FF2D00" opacity="0.68"/><rect x="516.7" y="205.1" width="27.0" height="8.7" fill="#FFE600" opacity="0.95"/><rect x="473.7" y="733.2" width="38.8" height="10.2" fill="#00E0FF" opacity="0.75"/><rect x="478.6" y="817.9" width="46.6" height="8.3" fill="#1400FF" opacity="0.85"/><rect x="507.4" y="733.0" width="21.9" height="7.2" fill="#B6FF00" opacity="0.69"/><rect x="482.5" y="806.8" width="40.7" height="10.0" fill="#B6FF00" opacity="0.88"/><rect x="510.8" y="524.2" width="32.5" height="2.7" fill="#FF2D00" opacity="0.93"/><rect x="500.0" y="430.4" width="17.2" height="6.3" fill="#B6FF00" opacity="0.86"/><rect x="513.6" y="739.0" width="34.9" height="6.3" fill="#B6FF00" opacity="0.90"/><rect x="523.2" y="323.3" width="24.7" height="8.2" fill="#FF2D00" opacity="0.95"/><rect x="466.0" y="208.8" width="60.6" height="6.2" fill="#1400FF" opacity="0.63"/><rect x="519.0" y="692.3" width="20.6" height="5.1" fill="#1400FF" opacity="0.82"/><rect x="522.7" y="360.7" width="38.3" height="4.0" fill="#B6FF00" opacity="0.75"/><rect x="481.3" y="695.3" width="23.5" height="7.5" fill="#FFE600" opacity="0.75"/><rect x="505.7" y="583.3" width="16.3" height="9.4" fill="#8A00FF" opacity="0.75"/><rect x="492.1" y="444.8" width="46.2" height="5.9" fill="#00E0FF" opacity="0.73"/><rect x="489.1" y="388.8" width="20.5" height="6.2" fill="#B6FF00" opacity="0.68"/><rect x="515.2" y="546.3" width="15.3" height="5.8" fill="#FFE600" opacity="0.68"/><rect x="479.1" y="571.1" width="21.2" height="8.8" fill="#00FF6A" opacity="0.68"/><rect x="523.0" y="565.1" width="12.1" height="8.5" fill="#00B7FF" opacity="0.68"/><rect x="480.6" y="638.3" width="32.7" height="3.1" fill="#00B7FF" opacity="0.75"/><rect x="483.6" y="781.2" width="27.2" height="9.2" fill="#00FF6A" opacity="0.93"/><rect x="498.3" y="470.5" width="37.5" height="7.0" fill="#1400FF" opacity="1.00"/><rect x="494.3" y="574.5" width="56.5" height="6.3" fill="#00E0FF" opacity="0.82"/><rect x="533.0" y="329.1" width="20.2" height="5.4" fill="#8A00FF" opacity="0.79"/><rect x="472.9" y="253.4" width="49.9" height="3.0" fill="#00B7FF" opacity="0.65"/><rect x="482.6" y="519.9" width="62.9" height="7.4" fill="#00FF6A" opacity="1.00"/><rect x="462.7" y="714.8" width="47.6" height="7.5" fill="#FFE600" opacity="0.88"/><rect x="500.0" y="786.2" width="62.7" height="10.5" fill="#B6FF00" opacity="0.77"/></g><g><rect x="1383.3" y="390.4" width="63.4" height="9.7" fill="#00E0FF" opacity="0.64"/><rect x="1360.2" y="374.0" width="56.5" height="5.4" fill="#FF2D00" opacity="0.84"/><rect x="1324.0" y="383.9" width="83.2" height="4.8" fill="#FFE600" opacity="0.69"/><rect x="1371.1" y="618.8" width="55.5" height="5.5" fill="#B6FF00" opacity="0.79"/><rect x="1319.2" y="613.7" width="48.5" height="10.2" fill="#00E0FF" opacity="0.88"/><rect x="1367.1" y="257.5" width="81.2" height="9.3" fill="#8A00FF" opacity="0.83"/><rect x="1381.6" y="655.8" width="68.5" height="6.7" fill="#00B7FF" opacity="0.72"/><rect x="1371.0" y="442.2" width="67.5" height="2.6" fill="#FF00A8" opacity="0.90"/><rect x="1329.9" y="656.1" width="102.5" height="10.9" fill="#FFE600" opacity="0.73"/><rect x="1335.1" y="714.5" width="41.4" height="7.6" fill="#B6FF00" opacity="0.76"/><rect x="1318.3" y="466.9" width="101.2" height="8.3" fill="#00FF6A" opacity="0.97"/><rect x="1386.7" y="316.4" width="23.0" height="9.3" fill="#FF2D00" opacity="0.64"/><rect x="1330.9" y="515.3" width="39.4" height="9.4" fill="#1400FF" opacity="0.94"/><rect x="1412.6" y="357.5" width="56.3" height="7.6" fill="#FF00A8" opacity="0.98"/><rect x="1321.6" y="674.0" width="97.4" height="6.4" fill="#B6FF00" opacity="0.96"/><rect x="1327.8" y="705.1" width="46.0" height="4.8" fill="#1400FF" opacity="0.97"/><rect x="1357.3" y="381.0" width="82.5" height="10.8" fill="#00FF6A" opacity="0.63"/><rect x="1391.4" y="500.9" width="97.0" height="3.4" fill="#00B7FF" opacity="0.81"/><rect x="1390.6" y="305.6" width="31.0" height="5.4" fill="#00FF6A" opacity="0.74"/><rect x="1338.4" y="201.1" width="77.1" height="5.4" fill="#FF2D00" opacity="0.96"/><rect x="1333.3" y="440.2" width="37.3" height="3.1" fill="#B6FF00" opacity="0.67"/><rect x="1410.0" y="713.6" width="54.4" height="7.9" fill="#FF2D00" opacity="0.97"/><rect x="1405.2" y="183.8" width="19.3" height="8.2" fill="#FF2D00" opacity="0.76"/><rect x="1365.8" y="320.0" width="103.5" height="7.7" fill="#00FF6A" opacity="0.77"/><rect x="1387.2" y="566.0" width="62.8" height="9.1" fill="#1400FF" opacity="0.94"/><rect x="1320.6" y="764.6" width="84.9" height="4.5" fill="#FF2D00" opacity="0.77"/><rect x="1389.7" y="229.8" width="96.0" height="6.1" fill="#00FF6A" opacity="0.87"/><rect x="1429.6" y="568.8" width="29.7" height="3.9" fill="#00E0FF" opacity="0.84"/><rect x="1407.3" y="509.7" width="37.7" height="2.9" fill="#00B7FF" opacity="0.88"/><rect x="1409.4" y="283.2" width="52.0" height="5.1" fill="#00E0FF" opacity="0.71"/><rect x="1348.6" y="373.7" width="35.5" height="4.4" fill="#00E0FF" opacity="0.73"/><rect x="1353.1" y="526.5" width="100.5" height="2.9" fill="#00B7FF" opacity="0.93"/><rect x="1403.3" y="597.5" width="70.3" height="5.1" fill="#B6FF00" opacity="0.80"/><rect x="1391.5" y="471.9" width="66.2" height="3.7" fill="#00B7FF" opacity="0.71"/><rect x="1395.2" y="727.3" width="47.3" height="5.2" fill="#FF2D00" opacity="0.99"/><rect x="1402.1" y="260.5" width="55.8" height="3.9" fill="#B6FF00" opacity="0.69"/><rect x="1365.4" y="450.4" width="57.7" height="9.6" fill="#00B7FF" opacity="0.73"/><rect x="1359.3" y="434.1" width="28.9" height="9.6" fill="#B6FF00" opacity="0.66"/><rect x="1361.1" y="401.1" width="65.6" height="8.7" fill="#FF00A8" opacity="0.93"/><rect x="1400.5" y="314.8" width="19.2" height="9.9" fill="#8A00FF" opacity="0.83"/><rect x="1355.3" y="688.2" width="25.3" height="3.0" fill="#8A00FF" opacity="0.87"/><rect x="1359.6" y="514.8" width="91.9" height="10.6" fill="#B6FF00" opacity="0.77"/><rect x="1371.2" y="545.0" width="91.2" height="5.3" fill="#1400FF" opacity="0.96"/><rect x="1329.5" y="653.5" width="28.5" height="3.3" fill="#B6FF00" opacity="0.90"/></g><g><rect x="575.9" y="850.1" width="114.3" height="2.6" fill="#8A00FF" opacity="0.69"/><rect x="1019.3" y="856.5" width="54.2" height="7.2" fill="#FF00A8" opacity="0.87"/><rect x="1125.4" y="872.4" width="68.0" height="3.1" fill="#00B7FF" opacity="0.92"/><rect x="470.0" y="869.5" width="43.5" height="10.1" fill="#8A00FF" opacity="0.68"/><rect x="1243.8" y="884.2" width="55.1" height="9.4" fill="#FFE600" opacity="0.68"/><rect x="638.8" y="857.1" width="155.6" height="10.7" fill="#FFE600" opacity="0.95"/><rect x="87.3" y="865.8" width="165.2" height="5.2" fill="#1400FF" opacity="0.89"/><rect x="493.8" y="864.3" width="64.3" height="9.5" fill="#00E0FF" opacity="0.86"/><rect x="515.1" y="865.7" width="130.1" height="4.7" fill="#B6FF00" opacity="0.64"/><rect x="413.6" y="880.2" width="95.6" height="2.5" fill="#FF00A8" opacity="0.75"/><rect x="33.8" y="873.6" width="169.1" height="3.0" fill="#FF00A8" opacity="0.87"/><rect x="90.6" y="874.5" width="148.1" height="7.4" fill="#00FF6A" opacity="0.88"/><rect x="1028.7" y="853.5" width="51.8" height="5.6" fill="#1400FF" opacity="0.85"/><rect x="1054.2" y="861.2" width="137.9" height="9.3" fill="#8A00FF" opacity="0.90"/><rect x="1134.3" y="861.2" width="32.7" height="6.2" fill="#FFE600" opacity="0.69"/><rect x="570.4" y="869.9" width="154.7" height="6.4" fill="#00B7FF" opacity="0.99"/><rect x="1310.9" y="882.9" width="157.1" height="3.4" fill="#00FF6A" opacity="0.99"/><rect x="311.9" y="866.8" width="178.2" height="4.1" fill="#1400FF" opacity="0.79"/><rect x="589.4" y="893.7" width="59.4" height="3.4" fill="#FFE600" opacity="0.71"/><rect x="420.5" y="881.8" width="153.0" height="4.5" fill="#00E0FF" opacity="0.71"/><rect x="777.9" y="897.7" width="164.9" height="3.6" fill="#FF2D00" opacity="0.80"/><rect x="449.2" y="858.9" width="181.1" height="7.9" fill="#00E0FF" opacity="0.81"/><rect x="729.8" y="875.1" width="26.6" height="9.4" fill="#B6FF00" opacity="0.81"/><rect x="399.1" y="861.2" width="98.7" height="7.6" fill="#FF00A8" opacity="0.71"/><rect x="160.3" y="871.2" width="195.7" height="7.3" fill="#B6FF00" opacity="0.75"/><rect x="616.7" y="872.8" width="88.6" height="8.8" fill="#FFE600" opacity="0.77"/><rect x="485.8" y="878.0" width="30.8" height="10.5" fill="#00E0FF" opacity="0.94"/><rect x="145.3" y="853.2" width="63.1" height="4.6" fill="#8A00FF" opacity="0.76"/><rect x="225.3" y="869.3" width="91.5" height="10.1" fill="#00B7FF" opacity="0.64"/><rect x="1118.2" y="862.2" width="99.4" height="5.3" fill="#00E0FF" opacity="0.87"/><rect x="153.4" y="863.7" width="173.2" height="4.2" fill="#FF00A8" opacity="0.74"/><rect x="49.0" y="886.3" width="113.0" height="6.4" fill="#FF00A8" opacity="0.78"/><rect x="688.5" y="852.8" width="97.8" height="9.9" fill="#B6FF00" opacity="0.92"/><rect x="788.2" y="858.6" width="59.7" height="3.2" fill="#FFE600" opacity="0.75"/><rect x="840.6" y="892.8" width="167.4" height="5.0" fill="#B6FF00" opacity="0.68"/><rect x="74.7" y="878.3" width="22.5" height="4.5" fill="#8A00FF" opacity="0.83"/><rect x="987.2" y="871.8" width="26.4" height="6.7" fill="#00FF6A" opacity="0.76"/><rect x="725.6" y="897.7" width="125.0" height="8.4" fill="#FFE600" opacity="0.65"/><rect x="288.1" y="877.2" width="127.7" height="8.5" fill="#B6FF00" opacity="0.84"/><rect x="1082.9" y="857.0" width="75.3" height="3.1" fill="#1400FF" opacity="0.91"/><rect x="1304.8" y="849.4" width="139.7" height="3.5" fill="#00B7FF" opacity="0.69"/><rect x="1152.4" y="860.2" width="173.7" height="8.2" fill="#FF00A8" opacity="0.79"/><rect x="18.7" y="871.6" width="199.1" height="7.3" fill="#FF00A8" opacity="0.68"/><rect x="372.5" y="896.8" width="78.5" height="4.2" fill="#1400FF" opacity="0.82"/><rect x="392.7" y="856.7" width="156.2" height="6.6" fill="#00E0FF" opacity="0.63"/><rect x="604.4" y="878.8" width="131.4" height="7.7" fill="#00E0FF" opacity="0.78"/><rect x="762.5" y="856.6" width="108.2" height="6.4" fill="#8A00FF" opacity="0.80"/><rect x="808.7" y="871.1" width="188.2" height="6.7" fill="#00E0FF" opacity="0.97"/><rect x="1324.0" y="878.8" width="156.8" height="10.8" fill="#00B7FF" opacity="0.80"/><rect x="253.0" y="861.0" width="126.6" height="3.6" fill="#B6FF00" opacity="0.80"/><rect x="862.6" y="862.0" width="75.4" height="6.8" fill="#00FF6A" opacity="0.64"/><rect x="414.0" y="869.9" width="125.3" height="9.4" fill="#B6FF00" opacity="0.93"/><rect x="535.6" y="870.2" width="153.0" height="9.5" fill="#00FF6A" opacity="0.74"/><rect x="62.1" y="877.0" width="117.7" height="4.6" fill="#FF00A8" opacity="0.85"/><rect x="662.9" y="880.7" width="28.9" height="4.9" fill="#FFE600" opacity="0.80"/><rect x="736.8" y="883.8" width="23.5" height="2.6" fill="#FF00A8" opacity="0.86"/><rect x="131.1" y="852.3" width="116.4" height="5.9" fill="#00FF6A" opacity="0.88"/><rect x="1282.2" y="863.9" width="71.4" height="6.4" fill="#FF00A8" opacity="0.66"/><rect x="457.9" y="873.2" width="179.0" height="10.7" fill="#8A00FF" opacity="0.70"/><rect x="128.6" y="852.6" width="27.8" height="6.7" fill="#B6FF00" opacity="0.68"/><rect x="334.0" y="850.1" width="108.3" height="7.6" fill="#8A00FF" opacity="0.64"/><rect x="439.4" y="894.6" width="152.0" height="4.5" fill="#1400FF" opacity="0.70"/><rect x="404.1" y="862.9" width="74.5" height="6.1" fill="#1400FF" opacity="0.68"/><rect x="513.2" y="880.2" width="85.0" height="4.9" fill="#8A00FF" opacity="0.99"/><rect x="461.3" y="871.1" width="152.1" height="4.7" fill="#FF2D00" opacity="0.96"/><rect x="1269.8" y="863.2" width="22.2" height="4.4" fill="#00B7FF" opacity="0.79"/><rect x="431.4" y="872.1" width="99.8" height="6.7" fill="#FF2D00" opacity="0.68"/><rect x="1215.4" y="865.2" width="105.1" height="8.3" fill="#FF2D00" opacity="0.97"/><rect x="393.2" y="872.9" width="26.2" height="8.1" fill="#FF00A8" opacity="0.80"/><rect x="946.5" y="885.6" width="135.1" height="9.9" fill="#00B7FF" opacity="0.99"/></g></svg>